<?xml version="1.0" encoding="iso-8859-1"?>
<!-- Generator: Adobe Illustrator 19.1.0, SVG Export Plug-In . SVG Version: 6.00 Build 0)  -->
<svg xmlns="http://www.w3.org/2000/svg" xmlns:xlink="http://www.w3.org/1999/xlink" version="1.1" id="Capa_1" x="0px" y="0px" viewBox="0 0 392.305 392.305" style="enable-background:new 0 0 392.305 392.305;" xml:space="preserve" width="512px" height="512px">
<g>
	<g>
		<g>
			<path d="M195.952,230.893c-4.276,0-8.552-1.069-11.758-4.276l-67.344-67.344     c-6.414-6.414-6.414-16.034,0-22.448c6.414-6.414,16.034-6.414,22.448,0l56.654,55.585l55.585-56.654     c6.414-6.414,16.034-6.414,22.448,0c6.414,6.414,6.414,16.034,0,22.448l-67.344,67.344     C203.435,228.755,200.228,230.893,195.952,230.893z" fill="#FFFFFF"/>
			<path d="M195.952,230.893c-8.552,0-16.034-7.483-16.034-16.034V16.034C179.918,7.483,187.4,0,195.952,0     s16.034,7.483,16.034,16.034V213.79C211.986,223.411,204.503,230.893,195.952,230.893z" fill="#FFFFFF"/>
		</g>
		<g>
			<path d="M330.639,392.305H60.195c-23.517,0-42.758-19.241-42.758-42.758v-73.758     c0-8.552,7.483-16.034,16.034-16.034h84.447c8.552,0,16.034,7.483,16.034,16.034v21.379c0,6.414,5.345,10.69,10.689,10.69h101.55     c6.414,0,10.689-5.345,10.689-10.69v-21.379c0-8.552,7.483-16.034,16.034-16.034h84.447c8.552,0,16.034,7.483,16.034,16.034     v73.758C374.466,373.063,354.156,392.305,330.639,392.305z M49.506,291.823v57.723c0,6.414,5.345,10.689,10.689,10.689h270.444     c6.414,0,10.69-5.345,10.69-10.689v-57.723H288.95v5.345c0,23.517-19.241,42.758-42.758,42.758h-101.55     c-23.517,0-42.758-19.241-42.758-42.758v-5.345C101.884,291.823,49.506,291.823,49.506,291.823z" fill="#FFFFFF"/>
			<path d="M358.432,291.823h-84.447c-8.552,0-16.034-7.483-16.034-16.034     c0-8.552,7.483-16.034,16.034-16.034h65.206L309.26,86.585h-51.31c-8.552,0-16.034-7.483-16.034-16.034     s7.483-16.034,16.034-16.034h64.137c7.483,0,14.965,5.345,16.034,12.827l36.344,205.238c1.069,4.276,0,9.621-3.207,12.827     C366.984,289.685,362.708,291.823,358.432,291.823z" fill="#FFFFFF"/>
			<path d="M117.919,291.823H33.471c-4.276,0-9.621-2.138-11.758-5.345     c-3.207-3.207-4.276-8.552-3.207-12.827L54.851,68.413c1.069-7.483,7.483-12.827,16.034-12.827h60.93     c8.552,0,16.034,7.483,16.034,16.034s-7.483,16.034-16.034,16.034H82.643l-29.931,173.17h65.206     c8.552,0,16.034,7.483,16.034,16.034C133.953,284.341,126.47,291.823,117.919,291.823z" fill="#FFFFFF"/>
		</g>
	</g>
</g>
<g>
</g>
<g>
</g>
<g>
</g>
<g>
</g>
<g>
</g>
<g>
</g>
<g>
</g>
<g>
</g>
<g>
</g>
<g>
</g>
<g>
</g>
<g>
</g>
<g>
</g>
<g>
</g>
<g>
</g>
</svg>
